<svg xmlns="http://www.w3.org/2000/svg" width="1600" height="900" viewBox="0 0 1600 900" role="img" aria-label="AnimeShowdown editorial visual">
  <defs>
    <linearGradient id="bg" x1="0" y1="0" x2="1" y2="1">
      <stop offset="0" stop-color="#070a12"/>
      <stop offset="0.48" stop-color="#1a2133"/>
      <stop offset="1" stop-color="#03050a"/>
    </linearGradient>
    <radialGradient id="r1" cx="78%" cy="26%" r="58%">
      <stop offset="0" stop-color="#9f1d2c" stop-opacity="0.38"/>
      <stop offset="1" stop-color="#9f1d2c" stop-opacity="0"/>
    </radialGradient>
    <radialGradient id="r2" cx="20%" cy="18%" r="58%">
      <stop offset="0" stop-color="#c5a15a" stop-opacity="0.22"/>
      <stop offset="1" stop-color="#c5a15a" stop-opacity="0"/>
    </radialGradient>
    <filter id="blur"><feGaussianBlur stdDeviation="42"/></filter>
    <style>
      .kanji{font-family:"Noto Sans JP","Hiragino Sans","Yu Gothic",sans-serif;font-size:360px;font-weight:900}
    </style>
  </defs>
  <rect width="1600" height="900" fill="url(#bg)"/>
  <rect width="1600" height="900" fill="url(#r1)"/>
  <rect width="1600" height="900" fill="url(#r2)"/>
  <circle cx="1260" cy="240" r="250" fill="#9f1d2c" opacity="0.18" filter="url(#blur)"/>
  <circle cx="280" cy="620" r="280" fill="#24c6dc" opacity="0.08" filter="url(#blur)"/>
  <g opacity="0.78"><circle cx="0" cy="0" r="0.8" fill="#c5a15a" opacity="0.12"/><circle cx="629" cy="293" r="2.1" fill="#9f1d2c" opacity="0.19"/><circle cx="1258" cy="586" r="3.4" fill="#9f1d2c" opacity="0.26"/><circle cx="287" cy="879" r="1.9" fill="#9f1d2c" opacity="0.33"/><circle cx="916" cy="272" r="3.2" fill="#9f1d2c" opacity="0.12"/><circle cx="1545" cy="565" r="1.7" fill="#c5a15a" opacity="0.19"/><circle cx="574" cy="858" r="3.0" fill="#9f1d2c" opacity="0.26"/><circle cx="1203" cy="251" r="1.5" fill="#9f1d2c" opacity="0.33"/><circle cx="232" cy="544" r="2.8" fill="#9f1d2c" opacity="0.12"/><circle cx="861" cy="837" r="1.3" fill="#9f1d2c" opacity="0.19"/><circle cx="1490" cy="230" r="2.6" fill="#c5a15a" opacity="0.26"/><circle cx="519" cy="523" r="1.1" fill="#9f1d2c" opacity="0.33"/><circle cx="1148" cy="816" r="2.4" fill="#9f1d2c" opacity="0.12"/><circle cx="177" cy="209" r="0.9" fill="#9f1d2c" opacity="0.19"/><circle cx="806" cy="502" r="2.2" fill="#9f1d2c" opacity="0.26"/><circle cx="1435" cy="795" r="3.5" fill="#c5a15a" opacity="0.33"/><circle cx="464" cy="188" r="2.0" fill="#9f1d2c" opacity="0.12"/><circle cx="1093" cy="481" r="3.3" fill="#9f1d2c" opacity="0.19"/><circle cx="122" cy="774" r="1.8" fill="#9f1d2c" opacity="0.26"/><circle cx="751" cy="167" r="3.1" fill="#9f1d2c" opacity="0.33"/><circle cx="1380" cy="460" r="1.6" fill="#c5a15a" opacity="0.12"/><circle cx="409" cy="753" r="2.9" fill="#9f1d2c" opacity="0.19"/><circle cx="1038" cy="146" r="1.4" fill="#9f1d2c" opacity="0.26"/><circle cx="67" cy="439" r="2.7" fill="#9f1d2c" opacity="0.33"/><circle cx="696" cy="732" r="1.2" fill="#9f1d2c" opacity="0.12"/><circle cx="1325" cy="125" r="2.5" fill="#c5a15a" opacity="0.19"/><circle cx="354" cy="418" r="1.0" fill="#9f1d2c" opacity="0.26"/><circle cx="983" cy="711" r="2.3" fill="#9f1d2c" opacity="0.33"/><circle cx="12" cy="104" r="0.8" fill="#9f1d2c" opacity="0.12"/><circle cx="641" cy="397" r="2.1" fill="#9f1d2c" opacity="0.19"/><circle cx="1270" cy="690" r="3.4" fill="#c5a15a" opacity="0.26"/><circle cx="299" cy="83" r="1.9" fill="#9f1d2c" opacity="0.33"/><circle cx="928" cy="376" r="3.2" fill="#9f1d2c" opacity="0.12"/><circle cx="1557" cy="669" r="1.7" fill="#9f1d2c" opacity="0.19"/><circle cx="586" cy="62" r="3.0" fill="#9f1d2c" opacity="0.26"/><circle cx="1215" cy="355" r="1.5" fill="#c5a15a" opacity="0.33"/><circle cx="244" cy="648" r="2.8" fill="#9f1d2c" opacity="0.12"/><circle cx="873" cy="41" r="1.3" fill="#9f1d2c" opacity="0.19"/><circle cx="1502" cy="334" r="2.6" fill="#9f1d2c" opacity="0.26"/><circle cx="531" cy="627" r="1.1" fill="#9f1d2c" opacity="0.33"/><circle cx="1160" cy="20" r="2.4" fill="#c5a15a" opacity="0.12"/><circle cx="189" cy="313" r="0.9" fill="#9f1d2c" opacity="0.19"/><circle cx="818" cy="606" r="2.2" fill="#9f1d2c" opacity="0.26"/><circle cx="1447" cy="899" r="3.5" fill="#9f1d2c" opacity="0.33"/><circle cx="476" cy="292" r="2.0" fill="#9f1d2c" opacity="0.12"/><circle cx="1105" cy="585" r="3.3" fill="#c5a15a" opacity="0.19"/><circle cx="134" cy="878" r="1.8" fill="#9f1d2c" opacity="0.26"/><circle cx="763" cy="271" r="3.1" fill="#9f1d2c" opacity="0.33"/><circle cx="1392" cy="564" r="1.6" fill="#9f1d2c" opacity="0.12"/><circle cx="421" cy="857" r="2.9" fill="#9f1d2c" opacity="0.19"/><circle cx="1050" cy="250" r="1.4" fill="#c5a15a" opacity="0.26"/><circle cx="79" cy="543" r="2.7" fill="#9f1d2c" opacity="0.33"/><circle cx="708" cy="836" r="1.2" fill="#9f1d2c" opacity="0.12"/><circle cx="1337" cy="229" r="2.5" fill="#9f1d2c" opacity="0.19"/><circle cx="366" cy="522" r="1.0" fill="#9f1d2c" opacity="0.26"/><circle cx="995" cy="815" r="2.3" fill="#c5a15a" opacity="0.33"/><circle cx="24" cy="208" r="0.8" fill="#9f1d2c" opacity="0.12"/><circle cx="653" cy="501" r="2.1" fill="#9f1d2c" opacity="0.19"/><circle cx="1282" cy="794" r="3.4" fill="#9f1d2c" opacity="0.26"/><circle cx="311" cy="187" r="1.9" fill="#9f1d2c" opacity="0.33"/><circle cx="940" cy="480" r="3.2" fill="#c5a15a" opacity="0.12"/><circle cx="1569" cy="773" r="1.7" fill="#9f1d2c" opacity="0.19"/><circle cx="598" cy="166" r="3.0" fill="#9f1d2c" opacity="0.26"/><circle cx="1227" cy="459" r="1.5" fill="#9f1d2c" opacity="0.33"/><circle cx="256" cy="752" r="2.8" fill="#9f1d2c" opacity="0.12"/><circle cx="885" cy="145" r="1.3" fill="#c5a15a" opacity="0.19"/><circle cx="1514" cy="438" r="2.6" fill="#9f1d2c" opacity="0.26"/><circle cx="543" cy="731" r="1.1" fill="#9f1d2c" opacity="0.33"/><circle cx="1172" cy="124" r="2.4" fill="#9f1d2c" opacity="0.12"/><circle cx="201" cy="417" r="0.9" fill="#9f1d2c" opacity="0.19"/></g><text x="1320" y="260" class="kanji" fill="#c5a15a" opacity="0.09">乱</text><rect x="-60" y="708" width="42" height="120" rx="4" fill="#050810" opacity="0.82"/><rect x="-50" y="736" width="22" height="3" fill="#c5a15a" opacity="0.22"/><rect x="32" y="661" width="60" height="167" rx="4" fill="#050810" opacity="0.82"/><rect x="124" y="614" width="78" height="214" rx="4" fill="#050810" opacity="0.82"/><rect x="216" y="567" width="96" height="261" rx="4" fill="#050810" opacity="0.82"/><rect x="226" y="595" width="76" height="3" fill="#c5a15a" opacity="0.22"/><rect x="308" y="520" width="42" height="308" rx="4" fill="#050810" opacity="0.82"/><rect x="400" y="683" width="60" height="145" rx="4" fill="#050810" opacity="0.82"/><rect x="492" y="636" width="78" height="192" rx="4" fill="#050810" opacity="0.82"/><rect x="502" y="664" width="58" height="3" fill="#c5a15a" opacity="0.22"/><rect x="584" y="589" width="96" height="239" rx="4" fill="#050810" opacity="0.82"/><rect x="676" y="542" width="42" height="286" rx="4" fill="#050810" opacity="0.82"/><rect x="768" y="705" width="60" height="123" rx="4" fill="#050810" opacity="0.82"/><rect x="778" y="733" width="40" height="3" fill="#c5a15a" opacity="0.22"/><rect x="860" y="658" width="78" height="170" rx="4" fill="#050810" opacity="0.82"/><rect x="952" y="611" width="96" height="217" rx="4" fill="#050810" opacity="0.82"/><rect x="1044" y="564" width="42" height="264" rx="4" fill="#050810" opacity="0.82"/><rect x="1054" y="592" width="22" height="3" fill="#c5a15a" opacity="0.22"/><rect x="1136" y="517" width="60" height="311" rx="4" fill="#050810" opacity="0.82"/><rect x="1228" y="680" width="78" height="148" rx="4" fill="#050810" opacity="0.82"/><rect x="1320" y="633" width="96" height="195" rx="4" fill="#050810" opacity="0.82"/><rect x="1330" y="661" width="76" height="3" fill="#c5a15a" opacity="0.22"/><rect x="1412" y="586" width="42" height="242" rx="4" fill="#050810" opacity="0.82"/><rect x="1504" y="539" width="60" height="289" rx="4" fill="#050810" opacity="0.82"/><path d="M910 690c72-220 268-220 340 0z" fill="#9f1d2c" opacity="0.22"/><circle cx="1080" cy="430" r="96" fill="#c5a15a" opacity="0.11"/>
  <rect width="1600" height="900" fill="#03050a" opacity="0.08"/>
</svg>