<svg xmlns="http://www.w3.org/2000/svg" width="1600" height="900" viewBox="0 0 1600 900" role="img" aria-label="AnimeShowdown editorial visual">
  <defs>
    <linearGradient id="bg" x1="0" y1="0" x2="1" y2="1">
      <stop offset="0" stop-color="#080b12"/>
      <stop offset="0.48" stop-color="#151b2a"/>
      <stop offset="1" stop-color="#03050a"/>
    </linearGradient>
    <radialGradient id="r1" cx="78%" cy="26%" r="58%">
      <stop offset="0" stop-color="#b9862e" stop-opacity="0.38"/>
      <stop offset="1" stop-color="#b9862e" stop-opacity="0"/>
    </radialGradient>
    <radialGradient id="r2" cx="20%" cy="18%" r="58%">
      <stop offset="0" stop-color="#f0c46a" stop-opacity="0.22"/>
      <stop offset="1" stop-color="#f0c46a" stop-opacity="0"/>
    </radialGradient>
    <filter id="blur"><feGaussianBlur stdDeviation="42"/></filter>
    <style>
      .kanji{font-family:"Noto Sans JP","Hiragino Sans","Yu Gothic",sans-serif;font-size:360px;font-weight:900}
    </style>
  </defs>
  <rect width="1600" height="900" fill="url(#bg)"/>
  <rect width="1600" height="900" fill="url(#r1)"/>
  <rect width="1600" height="900" fill="url(#r2)"/>
  <circle cx="1260" cy="240" r="250" fill="#b9862e" opacity="0.18" filter="url(#blur)"/>
  <circle cx="280" cy="620" r="280" fill="#1f6b83" opacity="0.08" filter="url(#blur)"/>
  <g opacity="0.78"><circle cx="0" cy="0" r="0.8" fill="#f0c46a" opacity="0.12"/><circle cx="629" cy="293" r="2.1" fill="#b9862e" opacity="0.19"/><circle cx="1258" cy="586" r="3.4" fill="#b9862e" opacity="0.26"/><circle cx="287" cy="879" r="1.9" fill="#b9862e" opacity="0.33"/><circle cx="916" cy="272" r="3.2" fill="#b9862e" opacity="0.12"/><circle cx="1545" cy="565" r="1.7" fill="#f0c46a" opacity="0.19"/><circle cx="574" cy="858" r="3.0" fill="#b9862e" opacity="0.26"/><circle cx="1203" cy="251" r="1.5" fill="#b9862e" opacity="0.33"/><circle cx="232" cy="544" r="2.8" fill="#b9862e" opacity="0.12"/><circle cx="861" cy="837" r="1.3" fill="#b9862e" opacity="0.19"/><circle cx="1490" cy="230" r="2.6" fill="#f0c46a" opacity="0.26"/><circle cx="519" cy="523" r="1.1" fill="#b9862e" opacity="0.33"/><circle cx="1148" cy="816" r="2.4" fill="#b9862e" opacity="0.12"/><circle cx="177" cy="209" r="0.9" fill="#b9862e" opacity="0.19"/><circle cx="806" cy="502" r="2.2" fill="#b9862e" opacity="0.26"/><circle cx="1435" cy="795" r="3.5" fill="#f0c46a" opacity="0.33"/><circle cx="464" cy="188" r="2.0" fill="#b9862e" opacity="0.12"/><circle cx="1093" cy="481" r="3.3" fill="#b9862e" opacity="0.19"/><circle cx="122" cy="774" r="1.8" fill="#b9862e" opacity="0.26"/><circle cx="751" cy="167" r="3.1" fill="#b9862e" opacity="0.33"/><circle cx="1380" cy="460" r="1.6" fill="#f0c46a" opacity="0.12"/><circle cx="409" cy="753" r="2.9" fill="#b9862e" opacity="0.19"/><circle cx="1038" cy="146" r="1.4" fill="#b9862e" opacity="0.26"/><circle cx="67" cy="439" r="2.7" fill="#b9862e" opacity="0.33"/><circle cx="696" cy="732" r="1.2" fill="#b9862e" opacity="0.12"/><circle cx="1325" cy="125" r="2.5" fill="#f0c46a" opacity="0.19"/><circle cx="354" cy="418" r="1.0" fill="#b9862e" opacity="0.26"/><circle cx="983" cy="711" r="2.3" fill="#b9862e" opacity="0.33"/><circle cx="12" cy="104" r="0.8" fill="#b9862e" opacity="0.12"/><circle cx="641" cy="397" r="2.1" fill="#b9862e" opacity="0.19"/><circle cx="1270" cy="690" r="3.4" fill="#f0c46a" opacity="0.26"/><circle cx="299" cy="83" r="1.9" fill="#b9862e" opacity="0.33"/><circle cx="928" cy="376" r="3.2" fill="#b9862e" opacity="0.12"/><circle cx="1557" cy="669" r="1.7" fill="#b9862e" opacity="0.19"/><circle cx="586" cy="62" r="3.0" fill="#b9862e" opacity="0.26"/><circle cx="1215" cy="355" r="1.5" fill="#f0c46a" opacity="0.33"/><circle cx="244" cy="648" r="2.8" fill="#b9862e" opacity="0.12"/><circle cx="873" cy="41" r="1.3" fill="#b9862e" opacity="0.19"/><circle cx="1502" cy="334" r="2.6" fill="#b9862e" opacity="0.26"/><circle cx="531" cy="627" r="1.1" fill="#b9862e" opacity="0.33"/><circle cx="1160" cy="20" r="2.4" fill="#f0c46a" opacity="0.12"/><circle cx="189" cy="313" r="0.9" fill="#b9862e" opacity="0.19"/><circle cx="818" cy="606" r="2.2" fill="#b9862e" opacity="0.26"/><circle cx="1447" cy="899" r="3.5" fill="#b9862e" opacity="0.33"/><circle cx="476" cy="292" r="2.0" fill="#b9862e" opacity="0.12"/><circle cx="1105" cy="585" r="3.3" fill="#f0c46a" opacity="0.19"/><circle cx="134" cy="878" r="1.8" fill="#b9862e" opacity="0.26"/><circle cx="763" cy="271" r="3.1" fill="#b9862e" opacity="0.33"/><circle cx="1392" cy="564" r="1.6" fill="#b9862e" opacity="0.12"/><circle cx="421" cy="857" r="2.9" fill="#b9862e" opacity="0.19"/><circle cx="1050" cy="250" r="1.4" fill="#f0c46a" opacity="0.26"/><circle cx="79" cy="543" r="2.7" fill="#b9862e" opacity="0.33"/><circle cx="708" cy="836" r="1.2" fill="#b9862e" opacity="0.12"/><circle cx="1337" cy="229" r="2.5" fill="#b9862e" opacity="0.19"/><circle cx="366" cy="522" r="1.0" fill="#b9862e" opacity="0.26"/><circle cx="995" cy="815" r="2.3" fill="#f0c46a" opacity="0.33"/><circle cx="24" cy="208" r="0.8" fill="#b9862e" opacity="0.12"/><circle cx="653" cy="501" r="2.1" fill="#b9862e" opacity="0.19"/><circle cx="1282" cy="794" r="3.4" fill="#b9862e" opacity="0.26"/><circle cx="311" cy="187" r="1.9" fill="#b9862e" opacity="0.33"/><circle cx="940" cy="480" r="3.2" fill="#f0c46a" opacity="0.12"/><circle cx="1569" cy="773" r="1.7" fill="#b9862e" opacity="0.19"/><circle cx="598" cy="166" r="3.0" fill="#b9862e" opacity="0.26"/><circle cx="1227" cy="459" r="1.5" fill="#b9862e" opacity="0.33"/><circle cx="256" cy="752" r="2.8" fill="#b9862e" opacity="0.12"/><circle cx="885" cy="145" r="1.3" fill="#f0c46a" opacity="0.19"/><circle cx="1514" cy="438" r="2.6" fill="#b9862e" opacity="0.26"/><circle cx="543" cy="731" r="1.1" fill="#b9862e" opacity="0.33"/><circle cx="1172" cy="124" r="2.4" fill="#b9862e" opacity="0.12"/><circle cx="201" cy="417" r="0.9" fill="#b9862e" opacity="0.19"/></g><text x="1320" y="260" class="kanji" fill="#f0c46a" opacity="0.09">冠</text><rect x="955" y="550" width="180" height="170" rx="12" fill="#f0c46a" opacity="0.20"/><rect x="765" y="620" width="180" height="100" rx="12" fill="#b9862e" opacity="0.18"/><rect x="1145" y="650" width="180" height="70" rx="12" fill="#1f6b83" opacity="0.18"/>
  <rect width="1600" height="900" fill="#03050a" opacity="0.08"/>
</svg>