<svg xmlns="http://www.w3.org/2000/svg" viewBox="0 0 1140 360" width="1140" height="360">

  <defs>
    
    <linearGradient id="gold" x1="0" y1="0" x2="0" y2="1">
      <stop offset="0" stop-color="#e0b25e"></stop><stop offset="1" stop-color="#f1e7d3"></stop>
    </linearGradient>
    <linearGradient id="redg" x1="0" y1="0" x2="0" y2="1">
      <stop offset="0" stop-color="#d62b2b"></stop><stop offset="1" stop-color="#9e1f1f"></stop>
    </linearGradient>
    
  </defs>
  
    <g>
      <circle cx="180" cy="180" r="132" fill="none" stroke="#d62b2b" stroke-width="15" stroke-linecap="round" stroke-dasharray="678 152" transform="rotate(150 180 180)"></circle>
      <circle cx="180" cy="180" r="108" fill="none" stroke="#d62b2b" stroke-width="6" stroke-linecap="round" stroke-dasharray="545 135" transform="rotate(-40 180 180)" opacity="0.72"></circle>
      <text class="k" x="180" y="180" font-size="172" fill="#f0463a" text-anchor="middle" dominant-baseline="central">滅</text>
      <g transform="translate(276 76) rotate(28)" opacity="0.9"><path d="M0 -13 Q9.1 -2.6 0 13 Q-9.1 -2.6 0 -13 Z" fill="#d62b2b"></path></g>
      <g transform="translate(302 98) rotate(52)" opacity="0.7"><path d="M0 -9 Q6.3 -1.8 0 9 Q-6.3 -1.8 0 -9 Z" fill="#d62b2b"></path></g>
      <g transform="translate(262 54) rotate(12)" opacity="0.6"><path d="M0 -8 Q5.6 -1.6 0 8 Q-5.6 -1.6 0 -8 Z" fill="#d62b2b"></path></g>
    </g>
  <text class="a" x="394" y="150" font-size="118" fill="#f1e7d3">Anime</text>
  <text class="a" x="394" y="278" font-size="118" fill="url(#gold)">Showdown</text>
  <text class="jp" x="398" y="330" font-size="30" fill="#f0463a">アニメの戦い</text>
</svg>